<?xml version="1.0" standalone="no"?>
<!DOCTYPE svg PUBLIC "-//W3C//DTD SVG 20010904//EN"
 "http://www.w3.org/TR/2001/REC-SVG-20010904/DTD/svg10.dtd">
<svg version="1.0" xmlns="http://www.w3.org/2000/svg"
 width="200.000000pt" height="200.000000pt" viewBox="0 0 200.000000 200.000000"
 preserveAspectRatio="xMidYMid meet">

<g transform="translate(0.000000,200.000000) scale(0.100000,-0.100000)"
fill="#000000" stroke="none">
<path d="M580 1487 l0 -137 -210 0 -210 0 0 -353 0 -352 135 -135 135 -135 0
348 0 347 215 0 215 0 0 -208 0 -207 140 -140 140 -140 0 348 0 347 215 0 215
0 0 -213 0 -212 135 -135 135 -135 0 345 0 345 -275 275 -275 275 0 -133 0
-132 -217 0 -218 0 -137 137 -138 138 0 -138z"/>
</g>
</svg>
